<svg xmlns="http://www.w3.org/2000/svg" xmlns:xlink="http://www.w3.org/1999/xlink" width="1400" height="430" viewBox="0 0 1400 430"><defs><style>.a{fill:url(#a);}.b{clip-path:url(#b);}.c{fill:#87bae7;}.d{fill:#80b3e4;}.e{fill:#7dafe2;}.f{fill:#77a9df;}.g{fill:#618bcf;}.h{fill:#5e88ce;}.i{fill:#6c9dd9;}.j{fill:#6a9bd8;}.k{fill:#72a4dd;}.l{fill:#557ac6;}.m{fill:#567cc7;}.n{fill:#4e6fbf;}.o{fill:#5479c5;}.p{fill:#6fa1db;}.q{fill:#6c9eda;}.r{fill:#6b9cd9;}.s{fill:#6694d5;}.t{fill:#6899d7;}.u{fill:#71a3dd;}.v{fill:#6d9eda;}.w{fill:#608acf;}.x{fill:#618acf;}.y{fill:#5b82cb;}.z{fill:#5378c5;}.aa{fill:#5277c4;}.ab{fill:#4966ba;}.ac{fill:#4763b7;}.ad{fill:#5b85cc;}.ae{fill:#4f72c1;}.af{fill:#4f73c1;}.ag{fill:#4d6fbf;}.ah{fill:#6a9cd9;}.ai{fill:#699bd8;}.aj{fill:#6999d7;}.ak{fill:#638fd2;}.al{fill:#233d57;}.am{fill:#172027;}.an{fill:#e6ba65;}.ao{fill:#cda056;}.ap{fill:#a67238;}.aq{fill:#cda058;}.ar{fill:#926633;}.as{fill:#a37138;}.at{fill:#f03a4a;}.au{fill:#f5f5f5;}.av{fill:#d02a33;}.aw{fill:#222741;}.ax{fill:#1f2e3c;}.ay{fill:#fff;}</style><linearGradient id="a" x1="0.009" y1="0.011" x2="1" y2="1" gradientUnits="objectBoundingBox"><stop offset="0" stop-color="#418ccb"/><stop offset="0.507" stop-color="#288289"/><stop offset="1" stop-color="#0c7643"/></linearGradient><clipPath id="b"><path d="M62.829-468.244h121.88v133.1h18.784v-253.2H396.165v214.2h18.991V-493.56H536.829v272.834h-474V-468.244" transform="translate(-62.829 588.348)"/></clipPath></defs><g transform="translate(0 -1681)"><path class="a" d="M130,0H1400a0,0,0,0,1,0,0V430a0,0,0,0,1,0,0H130A130,130,0,0,1,0,300V130A130,130,0,0,1,130,0Z" transform="translate(0 1681)"/><g transform="translate(-1711.798 1094.029)"><g transform="translate(2637.798 606.971)"><g class="b" transform="translate(0 0)"><path class="c" d="M521.968-350.069h38.773v-42.5H521.968Z" transform="translate(-119.696 563.952)"/><path class="c" d="M358.479-355.84H335.3V-480.288h3.3V-499.9h47.726v19.608h17.852v27.227H358.479v97.221" transform="translate(-96.577 577.326)"/><path class="c" d="M166.8-216.2h-7.751v-92.575h3.09v-8.369h-71.3v-66.536H166.8V-216.2" transform="translate(-66.298 562.844)"/><path class="c" d="M510.173-403.474H460.229v-76.593h49.945v76.593m-68.936-47.117h-14.5v-27.227h14.5v27.227" transform="translate(-107.902 574.855)"/><path class="d" d="M488.071-247.908H472.034v-18.153H456.615v-83.688h7.314v-42.822h49.945v42.5h-25.8v102.161" transform="translate(-111.602 563.952)"/><path class="e" d="M279.853-220.726H247.6v-12.606h4.854V-241.7H208.969v-93.444h7.363v3.983H214.8v2.757h17.733v-2.757H231v-7.875H217.7v-4.331h14.831v-2.559H231V-354H217.7v-3.741h14.831V-360.5H231v-7.872H217.7v-8.091h14.831v-2.758H231v-7.875H217.7v-4.33h14.831v-2.56H231v-8.07H217.7v-3.741h14.831v-2.757H231v-7.874H217.7v-8.091h14.831v-2.758H231v-7.874H217.7v-4.331h14.831v-2.559H231v-8.072H217.7v-3.738h14.831v-2.758H231v-7.874H217.7v-19.14h14.9v-2.531H231.2v-7.226H217.738v7.226H217.7v-11.2h14.9V-499.7H231.2v-7.406H217.738v7.406H217.7V-510.54h14.9v-2.531H231.2V-520.3H217.738v7.226H217.7V-550.7h5.555v-37.649h46.8V-550.7h19.216v41.452h26.5v17.937h-14.55v26.829h-10.15v7.874h-1.535v2.758h11.685v3.738h-10.15v8.072h-1.535v2.559h11.685v4.331h-10.15v7.874h-1.535v2.758h11.685v8.091h-10.15v7.874h-1.535v2.757h11.685v3.741h-10.15v8.07h-1.535v2.56h11.685v4.33h-10.15v7.875h-1.535v2.758h11.685v8.091h-10.15v7.872h-1.535v2.759h11.685V-354h-10.15v8.071h-1.535v2.559h11.685v4.331h-10.15v7.875h-1.535v2.757h11.685v37.949h-21.36v69.731m-15.1-110.437v2.757h17.734v-2.757H280.95v-7.875H266.285v7.875H264.75m-25.176,0v2.757h17.733v-2.757h-1.533v-7.875H241.109v7.875h-1.535m25.176-14.765v2.559h17.734v-2.559h-1.534V-354H266.285v8.071H264.75m-25.176,0v2.559h17.733v-2.559h-1.533V-354H241.109v8.071h-1.535M264.75-360.5v2.759h17.734V-360.5h-1.534v-7.872H266.285v7.872H264.75m-25.176,0v2.759h17.733V-360.5h-1.533v-7.872H241.109v7.872h-1.535m25.176-18.721v2.758h17.734v-2.758h-1.534v-7.875H266.285v7.875H264.75m-25.176,0v2.758h17.733v-2.758h-1.533v-7.875H241.109v7.875h-1.535m25.176-14.765v2.56h17.734v-2.56h-1.534v-8.07H266.285v8.07H264.75m-25.176,0v2.56h17.733v-2.56h-1.533v-8.07H241.109v8.07h-1.535m25.176-14.569v2.758h17.734v-2.758h-1.534v-7.874H266.285v7.874H264.75m-25.176,0v2.758h17.733v-2.758h-1.533v-7.874H241.109v7.874h-1.535m25.176-18.723v2.758h17.734v-2.758h-1.534v-7.874H266.285v7.874H264.75m-25.176,0v2.758h17.733v-2.758h-1.533v-7.874H241.11v7.874h-1.535m25.176-14.764v2.559h17.734v-2.559h-1.534v-8.072H266.285v8.072H264.75m-25.176,0v2.559h17.733v-2.559h-1.533v-8.072H241.11v8.072h-1.535m25.176-14.569v2.758h17.734v-2.758h-1.534v-7.874H266.285v7.874H264.75m-25.176,0v2.758h17.733v-2.758h-1.533v-7.874H241.11v7.874h-1.535m22.6-29.544v2.531h16.273v-2.531h-1.405v-7.226H263.583v7.226h-1.409m-22.736,0v2.531h16.275v-2.531H254.3v-7.226H240.845v7.226h-1.408m22.736-13.55v2.348h16.273V-499.7h-1.405v-7.406H263.583v7.406h-1.409m-22.736,0v2.348h16.275V-499.7H254.3v-7.406H240.845v7.406h-1.408m22.736-13.369v2.53h16.273v-2.53h-1.405V-520.3H263.583v7.226h-1.409m-22.736,0v2.53h16.275v-2.53H254.3V-520.3H240.845v7.226h-1.408m-48.283,103.89H177.541v-59.063h21.376v3.762h-7.762v7.874h-1.534v2.758h9.3v3.739h-7.761v8.072h-1.534v2.559h9.3v4.331h-7.761v7.874h-1.534v2.758h9.3v8.091h-7.761v7.246" transform="translate(-77.037 588.348)"/><path class="f" d="M332.875-276.644H318.7v-37.949h6.049v-2.757h-1.534v-7.875H318.7v-4.332h6.049v-2.558h-1.534v-8.071H318.7v-3.741h6.049v-2.758h-1.534v-7.873H318.7v-8.09h6.049v-2.758h-1.534v-7.875H318.7v-4.33h6.049v-2.56h-1.534v-8.07H318.7v-3.741h6.049v-2.758h-1.534v-7.874H318.7V-410.7h6.049v-2.758h-1.534v-7.874H318.7v-4.331h6.049v-2.559h-1.534V-436.3H318.7v-3.739h6.049v-2.758h-1.534v-7.874H318.7V-477.5h14.55v124.449h-.371v76.405" transform="translate(-94.52 574.535)"/><path class="f" d="M208.969-216.2H177.541V-383.676h13.614v.628h-1.534v2.758h9.3v3.741h-7.762v8.07h-1.534v2.56h9.3v4.33h-7.761v7.875h-1.534v2.758h9.3v8.091h-7.761v7.873h-1.534v2.758h9.3v3.741h-7.761v8.071h-1.534v2.558h9.3v4.331h-7.761v7.875h-1.534v2.757h17.733v-2.757h-1.535v-3.982h3.149V-216.2" transform="translate(-77.037 562.844)"/><path class="g" d="M193.08-438.976h7.761v-7.873H193.08Z" transform="translate(-78.961 570.716)"/><path class="g" d="M223.378-438.976h13.3v-7.873h-13.3Z" transform="translate(-82.714 570.716)"/><path class="g" d="M250.1-438.976h14.666v-7.873H250.1Z" transform="translate(-86.023 570.716)"/><path class="g" d="M278.83-438.976H293.5v-7.873H278.83Z" transform="translate(-89.582 570.716)"/><path class="g" d="M307.111-438.976h10.151v-7.873H307.111Z" transform="translate(-93.085 570.716)"/><path class="h" d="M318.7-438.976h4.515v-7.873H318.7Z" transform="translate(-94.52 570.716)"/><path class="g" d="M193.08-422.361h7.761v-8.072H193.08Z" transform="translate(-78.961 568.67)"/><path class="g" d="M223.378-422.361h13.3v-8.072h-13.3Z" transform="translate(-82.714 568.67)"/><path class="g" d="M250.1-422.361h14.666v-8.072H250.1Z" transform="translate(-86.023 568.67)"/><path class="g" d="M278.83-422.361H293.5v-8.072H278.83Z" transform="translate(-89.582 568.67)"/><path class="g" d="M307.111-422.361h10.151v-8.072H307.111Z" transform="translate(-93.085 568.67)"/><path class="h" d="M318.7-422.361h4.515v-8.072H318.7Z" transform="translate(-94.52 568.67)"/><path class="g" d="M193.08-405.468h7.761v-7.874H193.08Z" transform="translate(-78.961 566.54)"/><path class="g" d="M223.378-405.468h13.3v-7.874h-13.3Z" transform="translate(-82.714 566.54)"/><path class="g" d="M250.1-405.468h14.666v-7.874H250.1Z" transform="translate(-86.023 566.54)"/><path class="g" d="M278.83-405.468H293.5v-7.874H278.83Z" transform="translate(-89.582 566.54)"/><path class="g" d="M307.111-405.468h10.151v-7.874H307.111Z" transform="translate(-93.085 566.54)"/><path class="h" d="M318.7-405.468h4.515v-7.874H318.7Z" transform="translate(-94.52 566.54)"/><path class="i" d="M317.044-435.1H305.359v-2.758h11.685v2.758" transform="translate(-92.868 569.595)"/><path class="j" d="M324.745-435.1H318.7v-2.758h6.049v2.758" transform="translate(-94.52 569.595)"/><path class="i" d="M317.044-418.654H305.359v-2.559h11.685v2.559" transform="translate(-92.868 567.521)"/><path class="j" d="M324.745-418.654H318.7v-2.559h6.049v2.559" transform="translate(-94.52 567.521)"/><path class="i" d="M317.044-401.589H305.359v-2.758h11.685v2.758" transform="translate(-92.868 565.419)"/><path class="j" d="M324.745-401.589H318.7v-2.758h6.049v2.758" transform="translate(-94.52 565.419)"/><path class="i" d="M294.812-435.1H277.078v-2.758h17.734v2.758" transform="translate(-89.365 569.595)"/><path class="i" d="M294.812-418.654H277.078v-2.559h17.734v2.559" transform="translate(-89.365 567.521)"/><path class="i" d="M294.812-401.589H277.078v-2.758h17.734v2.758" transform="translate(-89.365 565.419)"/><path class="i" d="M266.077-435.1H248.343v-2.758h17.733v2.758" transform="translate(-85.806 569.595)"/><path class="i" d="M266.077-418.654H248.343v-2.559h17.733v2.559" transform="translate(-85.806 567.521)"/><path class="i" d="M266.077-401.589H248.343v-2.758h17.733v2.758" transform="translate(-85.806 565.419)"/><path class="i" d="M238.209-435.1H223.378v-2.758h14.831v2.758" transform="translate(-82.714 569.595)"/><path class="i" d="M238.209-418.654H223.378v-2.559h14.831v2.559" transform="translate(-82.714 567.521)"/><path class="i" d="M238.209-401.589H223.378v-2.758h14.831v2.758" transform="translate(-82.714 565.419)"/><path class="i" d="M200.624-435.1h-9.3v-2.758h9.3v2.758" transform="translate(-78.744 569.595)"/><path class="i" d="M200.624-418.654h-9.3v-2.559h9.3v2.559" transform="translate(-78.744 567.521)"/><path class="i" d="M200.624-401.589h-9.3v-2.758h9.3v2.758" transform="translate(-78.744 565.419)"/><path class="g" d="M223.421-503.383H236.88v-7.226H223.421Z" transform="translate(-82.719 578.661)"/><path class="g" d="M249.794-503.383h13.459v-7.226H249.794Z" transform="translate(-85.986 578.661)"/><path class="g" d="M275.746-503.383H289.2v-7.226H275.746Z" transform="translate(-89.2 578.661)"/><path class="g" d="M223.421-488.137H236.88v-7.406H223.421Z" transform="translate(-82.719 576.783)"/><path class="g" d="M249.794-488.137h13.459v-7.406H249.794Z" transform="translate(-85.986 576.783)"/><path class="g" d="M275.746-488.137H289.2v-7.406H275.746Z" transform="translate(-89.2 576.783)"/><path class="g" d="M223.421-472.633H236.88v-7.226H223.421Z" transform="translate(-82.719 574.829)"/><path class="g" d="M249.794-472.633h13.459v-7.226H249.794Z" transform="translate(-85.986 574.829)"/><path class="g" d="M275.746-472.633H289.2v-7.226H275.746Z" transform="translate(-89.2 574.829)"/><path class="i" d="M290.411-499.824H274.138v-2.531h16.273v2.531" transform="translate(-89.001 577.632)"/><path class="i" d="M290.411-484.734H274.138v-2.348h16.273v2.348" transform="translate(-89.001 575.729)"/><path class="i" d="M290.411-469.074H274.138V-471.6h16.273v2.531" transform="translate(-89.001 573.801)"/><path class="i" d="M264.463-499.824H248.187v-2.531h16.275v2.531" transform="translate(-85.787 577.632)"/><path class="i" d="M264.463-484.734H248.187v-2.348h16.275v2.348" transform="translate(-85.787 575.729)"/><path class="i" d="M264.463-469.074H248.187V-471.6h16.275v2.531" transform="translate(-85.787 573.801)"/><path class="i" d="M238.283-499.824h-14.9v-2.531h14.9v2.531" transform="translate(-82.714 577.632)"/><path class="i" d="M238.283-484.734h-14.9v-2.348h14.9v2.348" transform="translate(-82.714 575.729)"/><path class="i" d="M238.283-469.074h-14.9V-471.6h14.9v2.531" transform="translate(-82.714 573.801)"/><path class="g" d="M193.08-384.708h7.761v-7.246H193.08Z" transform="translate(-78.961 563.875)"/><path class="h" d="M193.08-383.048h7.761v-.628H193.08Z" transform="translate(-78.961 562.844)"/><path class="g" d="M223.378-384.08h13.3v-7.874h-13.3Z" transform="translate(-82.714 563.875)"/><path class="g" d="M250.1-384.08h14.666v-7.874H250.1Z" transform="translate(-86.023 563.875)"/><path class="g" d="M278.83-384.08H293.5v-7.874H278.83Z" transform="translate(-89.582 563.875)"/><path class="g" d="M307.111-384.08h10.151v-7.874H307.111Z" transform="translate(-93.085 563.875)"/><path class="h" d="M318.7-384.08h4.515v-7.874H318.7Z" transform="translate(-94.52 563.875)"/><path class="h" d="M193.08-367.465h7.761v-8.07H193.08Z" transform="translate(-78.961 561.829)"/><path class="g" d="M223.378-367.465h13.3v-8.07h-13.3Z" transform="translate(-82.714 561.829)"/><path class="g" d="M250.1-367.465h14.666v-8.07H250.1Z" transform="translate(-86.023 561.829)"/><path class="g" d="M278.83-367.465H293.5v-8.07H278.83Z" transform="translate(-89.582 561.829)"/><path class="g" d="M307.111-367.465h10.151v-8.07H307.111Z" transform="translate(-93.085 561.829)"/><path class="h" d="M318.7-367.465h4.515v-8.07H318.7Z" transform="translate(-94.52 561.829)"/><path class="h" d="M193.08-350.571h7.761v-7.875H193.08Z" transform="translate(-78.961 559.7)"/><path class="g" d="M223.378-350.571h13.3v-7.875h-13.3Z" transform="translate(-82.714 559.7)"/><path class="g" d="M250.1-350.571h14.666v-7.875H250.1Z" transform="translate(-86.023 559.7)"/><path class="g" d="M278.83-350.571H293.5v-7.875H278.83Z" transform="translate(-89.582 559.7)"/><path class="g" d="M307.111-350.571h10.151v-7.875H307.111Z" transform="translate(-93.085 559.7)"/><path class="h" d="M318.7-350.571h4.515v-7.875H318.7Z" transform="translate(-94.52 559.7)"/><path class="i" d="M317.044-380.2H305.359v-2.758h11.685v2.758" transform="translate(-92.868 562.754)"/><path class="j" d="M324.745-380.2H318.7v-2.758h6.049v2.758" transform="translate(-94.52 562.754)"/><path class="i" d="M317.044-363.757H305.359v-2.56h11.685v2.56" transform="translate(-92.868 560.681)"/><path class="j" d="M324.745-363.757H318.7v-2.56h6.049v2.56" transform="translate(-94.52 560.681)"/><path class="i" d="M317.044-346.692H305.359v-2.758h11.685v2.758" transform="translate(-92.868 558.579)"/><path class="j" d="M324.745-346.692H318.7v-2.758h6.049v2.758" transform="translate(-94.52 558.579)"/><path class="i" d="M294.812-380.2H277.078v-2.758h17.734v2.758" transform="translate(-89.365 562.754)"/><path class="i" d="M294.812-363.757H277.078v-2.56h17.734v2.56" transform="translate(-89.365 560.681)"/><path class="i" d="M294.812-346.692H277.078v-2.758h17.734v2.758" transform="translate(-89.365 558.579)"/><path class="i" d="M266.077-380.2H248.343v-2.758h17.733v2.758" transform="translate(-85.806 562.754)"/><path class="i" d="M266.077-363.757H248.343v-2.56h17.733v2.56" transform="translate(-85.806 560.681)"/><path class="i" d="M266.077-346.692H248.343v-2.758h17.733v2.758" transform="translate(-85.806 558.579)"/><path class="i" d="M238.209-380.2H223.378v-2.758h14.831v2.758" transform="translate(-82.714 562.754)"/><path class="i" d="M238.209-363.757H223.378v-2.56h14.831v2.56" transform="translate(-82.714 560.681)"/><path class="i" d="M238.209-346.692H223.378v-2.758h14.831v2.758" transform="translate(-82.714 558.579)"/><path class="j" d="M200.624-380.2h-9.3v-2.758h9.3v2.758" transform="translate(-78.744 562.754)"/><path class="j" d="M200.624-363.757h-9.3v-2.56h9.3v2.56" transform="translate(-78.744 560.681)"/><path class="j" d="M200.624-346.692h-9.3v-2.758h9.3v2.758" transform="translate(-78.744 558.579)"/><path class="h" d="M193.08-329.184h7.761v-7.873H193.08Z" transform="translate(-78.961 557.035)"/><path class="g" d="M223.378-329.184h13.3v-7.873h-13.3Z" transform="translate(-82.714 557.035)"/><path class="g" d="M250.1-329.184h14.666v-7.873H250.1Z" transform="translate(-86.023 557.035)"/><path class="g" d="M278.83-329.184H293.5v-7.873H278.83Z" transform="translate(-89.582 557.035)"/><path class="g" d="M307.111-329.184h10.151v-7.873H307.111Z" transform="translate(-93.085 557.035)"/><path class="h" d="M318.7-329.184h4.515v-7.873H318.7Z" transform="translate(-94.52 557.035)"/><path class="h" d="M193.08-312.568h7.761v-8.071H193.08Z" transform="translate(-78.961 554.989)"/><path class="g" d="M223.378-312.568h13.3v-8.071h-13.3Z" transform="translate(-82.714 554.989)"/><path class="g" d="M250.1-312.568h14.666v-8.071H250.1Z" transform="translate(-86.023 554.989)"/><path class="g" d="M278.83-312.568H293.5v-8.071H278.83Z" transform="translate(-89.582 554.989)"/><path class="g" d="M307.111-312.568h10.151v-8.071H307.111Z" transform="translate(-93.085 554.989)"/><path class="h" d="M318.7-312.568h4.515v-8.071H318.7Z" transform="translate(-94.52 554.989)"/><path class="h" d="M207.744-295.673H193.08v-7.875h7.761v3.892h6.9v3.983" transform="translate(-78.961 552.859)"/><path class="g" d="M236.482-295.673H221.815v-3.983h1.369v-3.893h13.3v7.875" transform="translate(-82.52 552.859)"/><path class="g" d="M250.1-295.674h14.666v-7.875H250.1Z" transform="translate(-86.023 552.859)"/><path class="g" d="M278.83-295.674H293.5v-7.875H278.83Z" transform="translate(-89.582 552.859)"/><path class="g" d="M307.111-295.674h10.151v-7.875H307.111Z" transform="translate(-93.085 552.859)"/><path class="h" d="M318.7-295.674h4.515v-7.875H318.7Z" transform="translate(-94.52 552.859)"/><path class="i" d="M317.044-325.305H305.359v-2.758h11.685v2.758" transform="translate(-92.868 555.914)"/><path class="j" d="M324.745-325.305H318.7v-2.758h6.049v2.758" transform="translate(-94.52 555.914)"/><path class="i" d="M317.044-308.861H305.359v-2.558h11.685v2.558" transform="translate(-92.868 553.84)"/><path class="j" d="M324.745-308.861H318.7v-2.558h6.049v2.558" transform="translate(-94.52 553.84)"/><path class="i" d="M317.044-291.8H305.359v-2.757h11.685v2.757" transform="translate(-92.868 551.738)"/><path class="j" d="M324.745-291.8H318.7v-2.757h6.049v2.757" transform="translate(-94.52 551.738)"/><path class="i" d="M294.812-325.305H277.078v-2.758h17.734v2.758" transform="translate(-89.365 555.914)"/><path class="i" d="M294.812-308.861H277.078v-2.558h17.734v2.558" transform="translate(-89.365 553.84)"/><path class="i" d="M294.812-291.8H277.078v-2.757h17.734v2.757" transform="translate(-89.365 551.738)"/><path class="i" d="M266.077-325.305H248.343v-2.758h17.733v2.758" transform="translate(-85.806 555.914)"/><path class="i" d="M266.077-308.861H248.343v-2.558h17.733v2.558" transform="translate(-85.806 553.84)"/><path class="i" d="M266.077-291.8H248.343v-2.757h17.733v2.757" transform="translate(-85.806 551.738)"/><path class="i" d="M238.209-325.305H223.378v-2.758h14.831v2.758" transform="translate(-82.714 555.914)"/><path class="i" d="M238.209-308.861H223.378v-2.558h14.831v2.558" transform="translate(-82.714 553.84)"/><path class="i" d="M237.8-291.8H220.066v-2.757H237.8v2.757" transform="translate(-82.304 551.738)"/><path class="j" d="M200.624-325.305h-9.3v-2.758h9.3v2.758" transform="translate(-78.744 555.914)"/><path class="j" d="M200.624-308.861h-9.3v-2.558h9.3v2.558" transform="translate(-78.744 553.84)"/><path class="j" d="M209.062-291.8H191.329v-2.757h17.733v2.757" transform="translate(-78.744 551.738)"/><path class="e" d="M425.153-349.173h-11.23v-9.319h5.11v-6.779h-5.11v-9.586h5.11v-6.779h-5.11v-9.583h5.11V-398h-5.11v-9.586h5.11v-6.778h-5.11v-9.587h5.11v-6.778h-5.11v-15.667h11.23v97.222" transform="translate(-106.314 570.659)"/><path class="f" d="M407.462-349.173H361.755v-97.222h45.706v15.667H396.426v6.778h11.036v9.587H396.426v6.778h11.036V-398H396.426v6.779h11.036v9.584H396.426v6.779h11.036v9.586H396.426v6.779h11.036v9.319m-30.136-9.319h12.192v-6.779H373.372v6.779h3.954m0-16.365h12.192v-6.779H373.372v6.779h3.954m0-16.363h12.192V-398H373.372v6.779h3.954m0-16.365h12.192v-6.778H373.372v6.778h3.954m0-16.365h12.192v-6.778H373.372v6.778h3.954" transform="translate(-99.853 570.659)"/><path class="f" d="M448.062-272.768H432.8v-20.266h10.88v-6.778H432.8V-309.4h10.88v-6.779H432.8v-9.587h10.88v-6.778H432.8v-9.585h10.88v-6.78H432.8v-.267H426.74V-446.4h14.5v15.667h-13.71v6.778h13.71v9.587h-13.71v6.778h13.71V-398h-13.71v6.779h13.71v9.584h-13.71v6.779h13.71v9.586h-13.71v6.779h13.71v2.036h6.825v83.688" transform="translate(-107.902 570.659)"/><path class="k" d="M451.076-259.965h4.852v-83.689h-4.852Z" transform="translate(-110.916 557.857)"/><path class="l" d="M391.16-421.72H378.968V-428.5h-3.954v0H391.16v6.778" transform="translate(-101.495 568.429)"/><path class="l" d="M391.16-403.025H378.968V-409.8h-3.954v0H391.16v6.778" transform="translate(-101.495 566.099)"/><path class="l" d="M391.16-384.331H378.968v-6.779h-3.954v0H391.16v6.779" transform="translate(-101.495 563.77)"/><path class="l" d="M391.16-365.639H378.968v-6.779h-3.954v0H391.16v6.779" transform="translate(-101.495 561.441)"/><path class="l" d="M391.16-346.944H378.968v-6.779h-3.954v0H391.16v6.779" transform="translate(-101.495 559.112)"/><path class="m" d="M413.923-421.72h5.11V-428.5h-5.11Z" transform="translate(-106.314 568.429)"/><path class="l" d="M412.363-421.72h-7.115V-428.5h-3.92v0h11.036v6.778" transform="translate(-104.754 568.429)"/><path class="m" d="M413.923-403.025h5.11V-409.8h-5.11Z" transform="translate(-106.314 566.099)"/><path class="l" d="M412.363-403.025h-7.115V-409.8h-3.92v0h11.036v6.778" transform="translate(-104.754 566.099)"/><path class="m" d="M413.923-384.331h5.11v-6.779h-5.11Z" transform="translate(-106.314 563.77)"/><path class="l" d="M412.363-384.331h-7.115v-6.779h-3.92v0h11.036v6.779" transform="translate(-104.754 563.77)"/><path class="m" d="M413.923-365.639h5.11v-6.779h-5.11Z" transform="translate(-106.314 561.441)"/><path class="l" d="M412.363-365.639h-7.115v-6.779h-3.92v0h11.036v6.779" transform="translate(-104.754 561.441)"/><path class="m" d="M413.923-346.944h5.11v-6.778h-5.11Z" transform="translate(-106.314 559.111)"/><path class="l" d="M412.363-346.944h-7.115v-6.779h-3.92v0h11.036v6.779" transform="translate(-104.754 559.112)"/><path class="l" d="M441.349-421.72H431.313V-428.5h-3.674v0h13.71v6.778" transform="translate(-108.013 568.429)"/><path class="l" d="M441.349-403.025H431.313V-409.8h-3.674v0h13.71v6.778" transform="translate(-108.013 566.099)"/><path class="l" d="M441.349-384.331H431.313v-6.779h-3.674v0h13.71v6.779" transform="translate(-108.013 563.77)"/><path class="l" d="M441.349-365.639H431.313v-6.779h-3.674v0h13.71v6.779" transform="translate(-108.013 561.441)"/><path class="l" d="M441.349-346.944H431.313v-6.779h-3.674v0h13.71v6.779" transform="translate(-108.013 559.112)"/><path class="l" d="M433.651-328.248h10.881v-6.78H433.651Z" transform="translate(-108.757 556.782)"/><path class="l" d="M433.651-309.556h10.881v-6.778H433.651Z" transform="translate(-108.757 554.453)"/><path class="l" d="M433.651-290.86h10.881v-6.779H433.651Z" transform="translate(-108.757 552.123)"/><path class="l" d="M433.651-272.168h10.881v-6.778H433.651Z" transform="translate(-108.757 549.794)"/><path class="n" d="M375.014-421.72h3.954V-428.5h-3.954Z" transform="translate(-101.495 568.429)"/><path class="n" d="M375.014-403.025h3.954V-409.8h-3.954Z" transform="translate(-101.495 566.099)"/><path class="n" d="M375.014-384.331h3.954v-6.779h-3.954Z" transform="translate(-101.495 563.77)"/><path class="n" d="M375.014-365.639h3.954v-6.779h-3.954Z" transform="translate(-101.495 561.441)"/><path class="n" d="M375.014-346.944h3.954v-6.778h-3.954Z" transform="translate(-101.495 559.111)"/><path class="n" d="M401.327-421.72h3.92V-428.5h-3.92Z" transform="translate(-104.754 568.429)"/><path class="n" d="M401.327-403.025h3.92V-409.8h-3.92Z" transform="translate(-104.754 566.099)"/><path class="n" d="M401.327-384.331h3.92v-6.779h-3.92Z" transform="translate(-104.754 563.77)"/><path class="n" d="M401.327-365.639h3.92v-6.779h-3.92Z" transform="translate(-104.754 561.441)"/><path class="n" d="M401.327-346.944h3.92v-6.778h-3.92Z" transform="translate(-104.754 559.111)"/><path class="n" d="M427.639-421.72h3.674V-428.5h-3.674Z" transform="translate(-108.013 568.429)"/><path class="n" d="M427.639-403.025h3.674V-409.8h-3.674Z" transform="translate(-108.013 566.099)"/><path class="n" d="M427.639-384.331h3.674v-6.779h-3.674Z" transform="translate(-108.013 563.77)"/><path class="n" d="M427.639-365.639h3.674v-6.779h-3.674Z" transform="translate(-108.013 561.441)"/><path class="n" d="M427.639-346.944h3.674v-6.778h-3.674Z" transform="translate(-108.013 559.111)"/><path class="e" d="M599.177-190.28H566.221V-344.019h32.956V-190.28m-28.57-28.183v23.111H582.6v-23.111h-11.99m0-34.254v23.111H582.6v-23.111h-11.99m0-34.253v23.113H582.6V-286.97h-11.99m0-34.252v23.11H582.6v-23.11h-11.99" transform="translate(-125.177 557.902)"/><path class="f" d="M557.927-190.28H499.248V-241.06H512.9v11.455H524.9v-23.111h-5.742v-11.14H524.9v-23.112h-5.742v-11.142H524.9v-23.112h-5.742v-22.8h38.773V-190.28m-20.32-28.183v23.111H549.6v-23.111H537.607m-24.7,0v23.111H524.9v-23.111H512.9m24.7-34.253v23.111H549.6v-23.111H537.607m0-34.252v23.112H549.6v-23.112H537.607m0-34.252v23.11H549.6v-23.11H537.607" transform="translate(-116.882 557.902)"/><path class="k" d="M512.071-241.061H498.415v-.8h-5.9V-344.019h25.8v22.8h-6.25v23.113h6.25v11.142h-6.25v23.113h6.25v11.14h-6.25v11.656" transform="translate(-116.048 557.902)"/><path class="l" d="M521.968-294.867h5.742v-23.113h-5.742Z" transform="translate(-119.696 554.657)"/><path class="o" d="M514.835-294.867h6.25v-23.113h-6.25Z" transform="translate(-118.813 554.657)"/><path class="l" d="M521.968-255.736h5.742v-23.113h-5.742Z" transform="translate(-119.696 549.781)"/><path class="o" d="M514.835-255.736h6.25v-23.113h-6.25Z" transform="translate(-118.813 549.781)"/><path class="l" d="M526.826-216.609H514.835v-11.455h6.25v-11.657h5.742v23.111" transform="translate(-118.813 544.906)"/><path class="o" d="M514.835-228.064h6.25v-11.657h-6.25Z" transform="translate(-118.813 544.905)"/><path class="l" d="M514.835-177.48h11.992v-23.112H514.835Z" transform="translate(-118.813 540.03)"/><path class="l" d="M543.029-294.866h11.991v-23.11H543.029Z" transform="translate(-122.305 554.657)"/><path class="l" d="M543.029-255.736h11.991v-23.113H543.029Z" transform="translate(-122.305 549.781)"/><path class="l" d="M543.029-216.609h11.991v-23.112H543.029Z" transform="translate(-122.305 544.906)"/><path class="l" d="M543.029-177.479h11.991V-200.59H543.029Z" transform="translate(-122.305 540.03)"/><path class="m" d="M571.228-294.866h11.99v-23.11h-11.99Z" transform="translate(-125.797 554.657)"/><path class="m" d="M571.228-255.736h11.99v-23.113h-11.99Z" transform="translate(-125.797 549.781)"/><path class="m" d="M571.228-216.609h11.99v-23.112h-11.99Z" transform="translate(-125.797 544.906)"/><path class="m" d="M571.228-177.479h11.99V-200.59h-11.99Z" transform="translate(-125.797 540.03)"/><path class="e" d="M87.369-185.751H65.094V-299.3H62.829v-8.368h24.54v30.74h-5.9v-1.309h-2.71v92.181h2.71v-1.7h5.9v2" transform="translate(-62.829 553.373)"/><path class="f" d="M110.765-185.751H90.838v-2h19.927v2m48.287-20.975h-16.72v-71.205h-2.709v1H90.838v-30.74h71.3v8.368h-3.09v92.576" transform="translate(-66.298 553.373)"/><path class="e" d="M84.106-183.524H90v-5.111h-5.9Z" transform="translate(-65.464 538.54)"/><path class="f" d="M90.838-183.524H107.51v-5.111H90.838Z" transform="translate(-66.298 538.54)"/><path class="e" d="M84.106-201.476H90v-5.111h-5.9Z" transform="translate(-65.464 540.777)"/><path class="f" d="M90.838-201.476h48.784v-5.111H90.838Z" transform="translate(-66.298 540.777)"/><path class="e" d="M84.106-219.428H90v-5.111h-5.9Z" transform="translate(-65.464 543.014)"/><path class="f" d="M90.838-219.428h48.784v-5.111H90.838Z" transform="translate(-66.298 543.014)"/><path class="e" d="M84.106-237.378H90v-5.112h-5.9Z" transform="translate(-65.464 545.251)"/><path class="f" d="M90.838-237.378h48.784v-5.112H90.838Z" transform="translate(-66.298 545.251)"/><path class="e" d="M84.106-255.33H90v-5.112h-5.9Z" transform="translate(-65.464 547.488)"/><path class="f" d="M90.838-255.33h48.784v-5.112H90.838Z" transform="translate(-66.298 547.488)"/><path class="g" d="M84.106-261.951H90v-10.6h-5.9Z" transform="translate(-65.464 548.997)"/><path class="h" d="M90.838-261.951h48.784v-10.6H90.838Z" transform="translate(-66.298 548.997)"/><path class="g" d="M84.106-244H90v-10.6h-5.9Z" transform="translate(-65.464 546.76)"/><path class="h" d="M90.838-244h48.784v-10.6H90.838Z" transform="translate(-66.298 546.76)"/><path class="g" d="M84.106-226.048H90v-10.6h-5.9Z" transform="translate(-65.464 544.523)"/><path class="h" d="M90.838-226.048h48.784v-10.6H90.838Z" transform="translate(-66.298 544.523)"/><path class="g" d="M84.106-208.1H90v-10.6h-5.9Z" transform="translate(-65.464 542.286)"/><path class="h" d="M90.838-208.1h48.784v-10.6H90.838Z" transform="translate(-66.298 542.286)"/><path class="g" d="M84.106-172.194H90v-10.6h-5.9Z" transform="translate(-65.464 537.812)"/><path class="h" d="M110.765-172.194H90.838v-10.6h19.927v10.6" transform="translate(-66.298 537.812)"/><path class="g" d="M84.106-190.145H90v-10.6h-5.9Z" transform="translate(-65.464 540.049)"/><path class="h" d="M107.51-190.145H90.838v-10.6h48.784v7.346H107.51v3.257" transform="translate(-66.298 540.049)"/><path class="i" d="M83.722-181.868h-2.71v-92.181h2.71v92.181" transform="translate(-65.081 549.183)"/><path class="j" d="M149.227-202.493h-2.709V-273.7h2.709v71.205" transform="translate(-73.194 549.139)"/><path class="p" d="M168.694-171.381h7.751v-20.976h-7.751Z" transform="translate(-75.941 539.004)"/><path class="q" d="M252.043-171.381H213.411v-20.975H256.9v8.369h-4.854v12.607" transform="translate(-81.479 539.004)"/><path class="r" d="M177.541-171.381h31.428v-20.976H177.541Z" transform="translate(-77.037 539.004)"/><path class="r" d="M161.408-171.381h-16.72v-20.975h16.72v20.975m-19.429,0H113.121v-2h28.857v2m0-12.607H109.866V-189.1h32.112v5.111" transform="translate(-68.655 539.004)"/><path class="s" d="M141.979-172.194H113.121v-10.6h28.857v10.6" transform="translate(-68.655 537.812)"/><path class="s" d="M109.866-189.1h32.112v-3.258H109.866Z" transform="translate(-68.655 539.004)"/><path class="t" d="M149.227-171.381h-2.709v-20.975h2.709v20.975" transform="translate(-73.194 539.004)"/><path class="e" d="M358.479-175.624H335.3v-6.852h23.176v6.852m0-23.047H335.3v-7.8h23.176v7.8m0-24H335.3V-226.4h23.176v3.733" transform="translate(-96.577 543.246)"/><path class="f" d="M358.479-239.978H335.3v-95.356h23.176v12.2h-7.884v14.473H346.32v3.447h12.158v6.082h-7.884v14.474H346.32v3.447h12.158v6.084h-7.884v14.472H346.32v3.447h12.158v17.226" transform="translate(-96.577 556.82)"/><path class="u" d="M330.227-178.322h-35.91v-69.731h21.36v18.95h14.55v3.733H312.875v16.2h17.351v7.8H312.875v16.2h17.351v6.851" transform="translate(-91.5 545.944)"/><path class="p" d="M333.246-239.978H318.7v-18.95h14.178v-76.405h.371v95.356" transform="translate(-94.52 556.82)"/><path class="k" d="M456.615-229.9h15.418v-18.153H456.615Z" transform="translate(-111.602 545.944)"/><path class="u" d="M408.122-189.2H361.755v-6.851h46.366v6.851m0-23.047H361.755v-7.805h46.366v7.805m0-24H361.755v-3.732h45.706V-257.2h6.162v-3.447h-4.542v-14.472h-1.62v-4.071h5.11v-2.012h1.053v-3.447h-1.053v-1.319h-3.489v-9.585h3.489v-6.779h-5.11v-2.874h6.162v-3.446h-4.542v-3.267h3.49V-318.7h-3.49v-4.428h-1.62v-5.157h5.11v-6.78h-5.11v-.267h11.23v94.558h-10.57v4.53" transform="translate(-99.853 556.82)"/><path class="p" d="M407.462-239.978H361.755V-257.2h45.706v17.226m0-35.145H361.755v-6.084h11.616v2.012h16.147v-2.012h6.908v2.012h11.036v4.071m-11.036-24h-6.908v-3.209H373.372v3.209H361.755v-6.082h45.706v2.874H396.426v3.209m11.036-24H361.755v-12.2h45.706v.267H396.426v6.78h11.036v5.157m-30.136-5.157h12.192v-6.78H373.372v6.78h3.954" transform="translate(-99.853 556.82)"/><path class="p" d="M448.062-240.776H426.74v-94.558H432.8v.267h-5.268v6.78H432.8v9.585h-5.267v6.778H432.8v9.587h-5.267v6.779H432.8v9.585h-5.267v6.778H432.8v20.266h15.267v18.153" transform="translate(-107.902 556.82)"/><path class="v" d="M451.076-229.9h4.852v-18.153h-4.852Z" transform="translate(-110.916 545.944)"/><path class="w" d="M391.16-328.248H378.968v-6.78h-3.954v0H391.16v6.78" transform="translate(-101.495 556.782)"/><path class="w" d="M391.16-294.43H378.968v-3.209h-3.954v0H391.16v3.209" transform="translate(-101.495 552.123)"/><path class="w" d="M379.527-271.49H391.72V-273.5H379.527Z" transform="translate(-102.054 549.115)"/><path class="x" d="M413.923-328.248h5.11v-6.78h-5.11Z" transform="translate(-106.314 556.782)"/><path class="w" d="M412.363-328.248h-7.115v-6.78h-3.92v0h11.036v6.78" transform="translate(-104.754 556.782)"/><path class="x" d="M415.772-309.556h3.489v-6.778h-3.489Z" transform="translate(-106.543 554.453)"/><path class="x" d="M419.032-290.86h-3.489v-3.57h-1.62v-3.209h5.11v6.779" transform="translate(-106.314 552.123)"/><path class="w" d="M412.363-294.43h-7.115v-3.209h-3.92v0h11.036v3.209" transform="translate(-104.754 552.123)"/><path class="x" d="M413.923-271.49h5.11V-273.5h-5.11Z" transform="translate(-106.314 549.115)"/><path class="w" d="M405.8-271.49h7.115V-273.5H405.8Z" transform="translate(-105.308 549.115)"/><path class="x" d="M415.772-277.627h3.489v-1.319h-3.489Z" transform="translate(-106.543 549.794)"/><path class="w" d="M432.906-328.248h-1.593v-6.78h-3.674v0h5.267v6.78" transform="translate(-108.013 556.782)"/><path class="w" d="M432.906-309.556h-1.593v-6.778h-3.674v0h5.267v6.778" transform="translate(-108.013 554.452)"/><path class="w" d="M432.906-290.86h-1.593v-6.779h-3.674v0h5.267v6.779" transform="translate(-108.013 552.123)"/><path class="w" d="M432.906-272.168h-1.593v-6.778h-3.674v0h5.267v6.778" transform="translate(-108.013 549.794)"/><path class="y" d="M375.014-328.248h3.954v-6.78h-3.954Z" transform="translate(-101.495 556.782)"/><path class="y" d="M375.014-294.431h3.954v-3.209h-3.954Z" transform="translate(-101.495 552.123)"/><path class="y" d="M375.014-271.49h3.954V-273.5h-3.954Z" transform="translate(-101.495 549.115)"/><path class="y" d="M401.327-328.248h3.92v-6.78h-3.92Z" transform="translate(-104.754 556.782)"/><path class="y" d="M401.327-294.431h3.92v-3.209h-3.92Z" transform="translate(-104.754 552.123)"/><path class="y" d="M401.327-271.49h3.92V-273.5h-3.92Z" transform="translate(-104.754 549.115)"/><path class="y" d="M427.639-328.248h3.674v-6.78h-3.674Z" transform="translate(-108.013 556.782)"/><path class="y" d="M427.639-309.556h3.674v-6.778h-3.674Z" transform="translate(-108.013 554.453)"/><path class="y" d="M427.639-290.86h3.674v-6.779h-3.674Z" transform="translate(-108.013 552.123)"/><path class="y" d="M427.639-272.168h3.674v-6.778h-3.674Z" transform="translate(-108.013 549.794)"/><path class="m" d="M335.3-205.945h23.176v-16.2H335.3Z" transform="translate(-96.577 542.715)"/><path class="z" d="M315.5-205.945H332.85v-16.2H315.5Z" transform="translate(-94.124 542.715)"/><path class="z" d="M361.755-205.945h46.366v-16.2H361.755Z" transform="translate(-99.853 542.715)"/><path class="m" d="M335.3-178.528h23.176v-16.2H335.3Z" transform="translate(-96.577 539.298)"/><path class="z" d="M315.5-178.528H332.85v-16.2H315.5Z" transform="translate(-94.124 539.298)"/><path class="z" d="M361.755-178.528h46.366v-16.2H361.755Z" transform="translate(-99.853 539.298)"/><path class="l" d="M352.756-306.919h7.884v-14.473h-7.884Z" transform="translate(-98.738 555.083)"/><path class="z" d="M415.543-306.919h-1.62v-3.267h1.62v3.267m0-10.045h-1.62v-4.428h1.62v4.428" transform="translate(-106.314 555.083)"/><path class="aa" d="M407.462-306.919H361.755v-14.473h45.706v4.428H396.426v6.778h11.036v3.267m-30.136-3.267h12.192v-6.778H373.372v6.778h3.954" transform="translate(-99.853 555.083)"/><path class="ab" d="M391.16-309.556H378.968v-6.778h-3.954v0H391.16v6.778" transform="translate(-101.495 554.452)"/><path class="ab" d="M413.923-309.556h1.62v-6.778h-1.62Z" transform="translate(-106.314 554.453)"/><path class="ab" d="M412.363-309.556h-7.115v-6.778h-3.92v0h11.036v6.778" transform="translate(-104.754 554.452)"/><path class="ac" d="M375.014-309.556h3.954v-6.778h-3.954Z" transform="translate(-101.495 554.453)"/><path class="ac" d="M401.327-309.556h3.92v-6.778h-3.92Z" transform="translate(-104.754 554.453)"/><path class="l" d="M352.756-279.5h7.884v-14.474h-7.884Z" transform="translate(-98.738 551.666)"/><path class="z" d="M413.923-280.311h1.62v-9.584h-1.62Z" transform="translate(-106.314 551.158)"/><path class="aa" d="M396.426-279.5h-6.908v-1.319H373.372v1.319H361.755v-14.474h11.616v3.57h16.147v-3.57h6.908v3.57h11.036v9.585H396.426v1.319" transform="translate(-99.853 551.666)"/><path class="ab" d="M379.527-290.4H391.72v-3.57H379.527Z" transform="translate(-102.054 551.666)"/><path class="ab" d="M391.16-277.627H378.968v-1.319h-3.954v0H391.16v1.319" transform="translate(-101.495 549.794)"/><path class="ab" d="M413.923-290.4h1.62v-3.57h-1.62Z" transform="translate(-106.314 551.666)"/><path class="ab" d="M405.8-290.4h7.115v-3.57H405.8Z" transform="translate(-105.308 551.666)"/><path class="ab" d="M413.923-277.627h1.62v-1.319h-1.62Z" transform="translate(-106.314 549.794)"/><path class="ab" d="M412.363-277.627h-7.115v-1.319h-3.92v0h11.036v1.319" transform="translate(-104.754 549.794)"/><path class="ac" d="M375.014-290.4h3.954v-3.57h-3.954Z" transform="translate(-101.495 551.666)"/><path class="ac" d="M375.014-277.627h3.954v-1.319h-3.954Z" transform="translate(-101.495 549.794)"/><path class="ac" d="M401.327-290.4h3.92v-3.57h-3.92Z" transform="translate(-104.754 551.666)"/><path class="ac" d="M401.327-277.627h3.92v-1.319h-3.92Z" transform="translate(-104.754 549.794)"/><path class="l" d="M352.756-252.081h7.884v-14.472h-7.884Z" transform="translate(-98.738 548.249)"/><path class="z" d="M413.923-252.081h1.62v-14.472h-1.62Z" transform="translate(-106.314 548.249)"/><path class="aa" d="M361.755-252.081h45.706v-14.472H361.755Z" transform="translate(-99.853 548.249)"/><path class="h" d="M360.036-246.574H347.878v-3.447h12.158v3.447" transform="translate(-98.134 546.189)"/><path class="ad" d="M420.085-246.574h-6.162v-3.447h6.162v3.447" transform="translate(-106.314 546.189)"/><path class="ad" d="M361.755-246.574h45.706v-3.447H361.755Z" transform="translate(-99.853 546.189)"/><path class="h" d="M360.036-273.993H347.878v-3.447h12.158v3.447" transform="translate(-98.134 549.606)"/><path class="ad" d="M419.755-273.993h1.052v-3.447h-1.052Z" transform="translate(-107.036 549.606)"/><path class="ad" d="M396.426-273.993h-6.908v-3.447h6.908v3.447m-23.054,0H361.755v-3.447h11.616v3.447" transform="translate(-99.853 549.606)"/><path class="ae" d="M379.527-273.993H391.72v-3.447H379.527Z" transform="translate(-102.054 549.606)"/><path class="af" d="M419.033-273.993h-5.11v-3.447h5.11v3.447" transform="translate(-106.314 549.606)"/><path class="ae" d="M405.8-273.993h7.115v-3.447H405.8Z" transform="translate(-105.308 549.606)"/><path class="ag" d="M375.014-273.993h3.954v-3.447h-3.954Z" transform="translate(-101.495 549.606)"/><path class="ag" d="M401.327-273.993h3.92v-3.447h-3.92Z" transform="translate(-104.754 549.606)"/><path class="h" d="M360.036-301.413H347.878v-3.447h12.158v3.447" transform="translate(-98.134 553.023)"/><path class="ad" d="M420.085-301.413h-6.162v-3.447h6.162v3.447" transform="translate(-106.314 553.023)"/><path class="ad" d="M361.755-301.413h45.706v-3.447H361.755Z" transform="translate(-99.853 553.023)"/><path class="p" d="M474.213-175.624h16.037V-226.4H474.213Z" transform="translate(-113.781 543.246)"/><path class="v" d="M474.213-226.518h16.037v-.8H474.213Z" transform="translate(-113.781 543.36)"/><path class="r" d="M492.517-175.624h5.9V-226.4h-5.9Z" transform="translate(-116.048 543.246)"/><path class="ah" d="M492.517-226.518h5.9v-.8h-5.9Z" transform="translate(-116.048 543.36)"/><path class="r" d="M456.615-175.624h15.418V-226.4H456.615Z" transform="translate(-111.602 543.246)"/><path class="ah" d="M456.615-226.518h15.418v-.8H456.615Z" transform="translate(-111.602 543.36)"/><path class="j" d="M446.568-175.738H414.676v-6.851h31.892v6.851m0-23.047H414.676v-7.805h31.892v7.805m0-24H414.676v-4.53h10.57v.8h21.322v3.733" transform="translate(-106.407 543.36)"/><path class="ai" d="M455.929-175.624h-4.852v-6.852h1.711v-16.2h-1.711v-7.8h1.711v-16.2h-1.711V-226.4h4.852v50.781" transform="translate(-110.916 543.246)"/><path class="ai" d="M426.74-226.518h21.322v-.8H426.74Z" transform="translate(-107.902 543.36)"/><path class="aj" d="M451.076-226.518h4.852v-.8h-4.852Z" transform="translate(-110.916 543.36)"/><path class="ak" d="M414.676-205.945h31.892v-16.2H414.676Z" transform="translate(-106.407 542.715)"/><path class="ak" d="M451.076-205.945h1.711v-16.2h-1.711Z" transform="translate(-110.916 542.715)"/><path class="ak" d="M414.676-178.528h31.892v-16.2H414.676Z" transform="translate(-106.407 539.298)"/><path class="ak" d="M451.076-178.528h1.711v-16.2h-1.711Z" transform="translate(-110.916 539.298)"/></g></g><g transform="translate(2701.653 827.666)"><path class="al" d="M482.12-125.646c0,2.437-86.95,4.413-194.209,4.413s-152.123-1.976-152.123-4.413,44.865-4.412,152.123-4.412,194.209,1.975,194.209,4.412" transform="translate(-135.789 310.538)"/><path class="am" d="M200.737-179.381a24.811,24.811,0,0,1,24.811,24.812,24.811,24.811,0,0,1-24.811,24.811H193.86v-49.623h6.878" transform="translate(-143.037 316.694)"/><path class="am" d="M348.734-179.381a24.812,24.812,0,0,1,24.812,24.812,24.812,24.812,0,0,1-24.812,24.811h-6.878v-49.623h6.878" transform="translate(-161.191 316.694)"/><path class="am" d="M200.737-179.381a24.811,24.811,0,0,1,24.811,24.812,24.811,24.811,0,0,1-24.811,24.811H193.86v-49.623h6.878" transform="translate(-143.037 316.694)"/><path class="am" d="M227-159.86a24.812,24.812,0,0,1,24.811-24.811,24.811,24.811,0,0,1,24.811,24.811,24.812,24.812,0,0,1-24.811,24.812A24.812,24.812,0,0,1,227-159.86" transform="translate(-147.024 317.354)"/><path class="am" d="M413.575-184.671a24.812,24.812,0,0,1,24.811,24.811,24.812,24.812,0,0,1-24.811,24.812h-6.88v-49.623h6.88" transform="translate(-169.181 317.354)"/><path class="am" d="M378.347-159.86a24.811,24.811,0,0,1,24.81-24.811,24.812,24.812,0,0,1,24.812,24.811,24.812,24.812,0,0,1-24.812,24.812,24.811,24.811,0,0,1-24.81-24.812" transform="translate(-165.665 317.354)"/><path class="an" d="M341.857-336.275H469.108v43.951H341.857v-43.951" transform="translate(-160.955 336.275)"/><path class="an" d="M283.7-184.388H385.5v-101.8H283.7v101.8" transform="translate(-153.955 330.024)"/><path class="ao" d="M385.5-221.327v-15.638H283.7v15.638H385.5" transform="translate(-153.955 323.88)"/><path class="ap" d="M329.722-221.327h21.239v-15.638H329.722v15.638" transform="translate(-159.705 323.88)"/><path class="ao" d="M332.922-184.388H348.56v-101.8H332.922v101.8" transform="translate(-160.104 330.024)"/><path class="aq" d="M400.016-184.388h76.35v-101.8h-76.35v101.8" transform="translate(-168.213 330.024)"/><path class="ap" d="M476.367-221.327v-15.638h-76.35v15.638h76.35" transform="translate(-168.213 323.88)"/><path class="ar" d="M431.148-221.327h21.239v-15.638H431.148v15.638" transform="translate(-172.211 323.88)"/><path class="as" d="M400.016-291.468h76.35l38.177-37.947H438.192l-38.176,37.947" transform="translate(-168.213 335.419)"/><path class="ap" d="M449.986-184.388H434.349v-101.8h15.637v101.8" transform="translate(-172.613 330.024)"/><path class="ar" d="M434.349-291.586h15.637l37.83-37.829H472.18l-37.831,37.829" transform="translate(-172.498 335.419)"/><path class="aq" d="M380.054-291.635h-101.8L240.077-329.81h101.8l38.176,38.174" transform="translate(-148.559 335.469)"/><path class="ap" d="M343.116-291.635H327.478L289.3-329.81H304.94l38.176,38.174" transform="translate(-154.695 335.469)"/><path class="al" d="M140.685-153.382H367.038V-169.87H140.685a4.9,4.9,0,0,0-4.9,4.9v6.7a4.9,4.9,0,0,0,4.9,4.9" transform="translate(-135.789 315.507)"/><path class="at" d="M141.384-184.388h124.55v-101.8H203.522a36.679,36.679,0,0,0-30.392,16.144l-25.46,37.68a36.686,36.686,0,0,0-6.286,20.535v27.444" transform="translate(-136.489 330.024)"/><path class="au" d="M238.291-224.317V-273.1H205.773a25.19,25.19,0,0,0-20.9,11.1l-25.457,37.681h78.876" transform="translate(-138.737 328.391)"/><path class="av" d="M266.558-286.191h15v101.8h-15v-101.8" transform="translate(-151.918 330.024)"/><path class="am" d="M336.347-184.671a29.442,29.442,0,0,1,29.442,29.442H306.906a29.442,29.442,0,0,1,29.441-29.442" transform="translate(-156.857 317.354)"/><path class="am" d="M188.35-184.671a29.443,29.443,0,0,1,29.443,29.442H158.909a29.442,29.442,0,0,1,29.441-29.442" transform="translate(-138.675 317.354)"/><path class="aw" d="M313.506-154.569a24.812,24.812,0,0,1,24.812-24.812,24.811,24.811,0,0,1,24.811,24.812,24.811,24.811,0,0,1-24.811,24.811,24.812,24.812,0,0,1-24.812-24.811" transform="translate(-157.678 316.694)"/><path class="au" d="M327.907-152.771a12.207,12.207,0,0,1,12.208-12.208,12.207,12.207,0,0,1,12.207,12.208,12.206,12.206,0,0,1-12.207,12.207,12.207,12.207,0,0,1-12.208-12.207" transform="translate(-159.478 314.896)"/><path class="aw" d="M165.509-154.569a24.811,24.811,0,0,1,24.812-24.812,24.812,24.812,0,0,1,24.811,24.812,24.811,24.811,0,0,1-24.811,24.811,24.811,24.811,0,0,1-24.812-24.811" transform="translate(-139.5 316.694)"/><path class="au" d="M179.91-152.771a12.207,12.207,0,0,1,12.208-12.208,12.207,12.207,0,0,1,12.207,12.208,12.207,12.207,0,0,1-12.207,12.207,12.207,12.207,0,0,1-12.208-12.207" transform="translate(-141.297 314.896)"/><path class="av" d="M400.016-180.333h10.633v-10.121H400.016v10.121" transform="translate(-168.385 318.076)"/><path class="at" d="M387.866-180.333H398.5v-10.121H387.866v10.121" transform="translate(-166.885 318.076)"/><path class="av" d="M475.105-180.333h10.633v-10.121H475.105v10.121" transform="translate(-177.584 318.076)"/><path class="av" d="M234.361-207.36h9.787a3.11,3.11,0,0,0,3.109-3.11V-212.7H231.251v2.225a3.11,3.11,0,0,0,3.11,3.11" transform="translate(-147.564 320.852)"/><path class="aw" d="M234.361-208.681h9.787a3.109,3.109,0,0,0,3.109-3.11v-.9H231.251v.9a3.11,3.11,0,0,0,3.11,3.11" transform="translate(-147.564 320.852)"/><path class="au" d="M151.05-186.05a9.667,9.667,0,0,0-9.667-9.667v19.333a9.667,9.667,0,0,0,9.667-9.667" transform="translate(-136.489 318.733)"/><path class="ax" d="M475.668-169.87h-76.35a4.9,4.9,0,0,0-4.9,4.9v6.7a4.9,4.9,0,0,0,4.9,4.9h76.35a4.9,4.9,0,0,0,4.9-4.9v-6.7a4.9,4.9,0,0,0-4.9-4.9" transform="translate(-167.515 315.507)"/><path class="au" d="M409.093-160.951a3.5,3.5,0,0,0-3.5-3.5,3.5,3.5,0,0,0-3.5,3.5,3.5,3.5,0,0,0,3.5,3.5,3.5,3.5,0,0,0,3.5-3.5" transform="translate(-168.645 314.831)"/><path class="au" d="M416.487-160.7a1.752,1.752,0,0,0-1.752-1.752,1.751,1.751,0,0,0-1.751,1.752,1.752,1.752,0,0,0,1.751,1.752,1.752,1.752,0,0,0,1.752-1.752" transform="translate(-169.992 314.581)"/><path class="au" d="M477.179-160.951a3.5,3.5,0,0,0,3.5,3.5,3.5,3.5,0,0,0,3.5-3.5,3.5,3.5,0,0,0-3.5-3.5,3.5,3.5,0,0,0-3.5,3.5" transform="translate(-177.843 314.831)"/><path class="au" d="M470.284-160.7a1.752,1.752,0,0,0,1.751,1.752,1.752,1.752,0,0,0,1.752-1.752,1.752,1.752,0,0,0-1.752-1.752,1.752,1.752,0,0,0-1.751,1.752" transform="translate(-176.983 314.581)"/></g><path class="ay" d="M531.1-384.323c0-.007-.475-.7-1.378-1.91l-.934.7c.446.6.785,1.065,1.009,1.383s.337.483.337.483l.966-.655" transform="translate(2517.329 1170.129)"/><path class="ay" d="M477.564-400.975c-.889-1.087-1.911-2.3-3.058-3.6l-.879.77c1.138,1.293,2.15,2.495,3.031,3.573Zm-6.239-7.1c-1.031-1.093-2.132-2.225-3.3-3.383l-.823.828c1.158,1.147,2.249,2.27,3.271,3.354Zm-6.715-6.648q-1.692-1.562-3.532-3.142l-.761.886q1.821,1.561,3.5,3.112Zm-7.18-6.147q-1.825-1.444-3.766-2.859l-.688.943q1.922,1.4,3.728,2.831Zm-7.65-5.558q-1.953-1.294-4-2.522l-.6,1q2.027,1.212,3.957,2.493Zm-8.125-4.849q-2.074-1.1-4.237-2.113l-.493,1.057q2.132.993,4.181,2.085Zm-8.585-3.991q-2.19-.87-4.453-1.619l-.367,1.108q2.23.735,4.386,1.6Zm-9-2.958q-2.281-.592-4.627-1.039l-.217,1.147q2.307.436,4.55,1.021Zm-9.314-1.756q-2.335-.273-4.728-.383l-.053,1.166q2.349.105,4.643.376Zm-9.473-.422q-2.344.064-4.736.307l.118,1.161q2.349-.24,4.651-.3Zm-9.437.957q-2.3.4-4.641.983l.283,1.133q2.3-.572,4.561-.966Zm-9.2,2.281q-2.216.712-4.464,1.594l.428,1.086q2.213-.87,4.393-1.569Zm-8.817,3.46q-2.107.979-4.237,2.116l.552,1.029q2.1-1.124,4.177-2.087Zm-8.35,4.457c-.145.088-.29.175-.434.263q-1.841,1.124-3.6,2.11l.572,1.019q1.781-1,3.641-2.133l.429-.26Zm-8.169,4.554q-2.185,1.08-4.243,1.941l.452,1.076q2.1-.877,4.309-1.971Zm-8.6,3.578q-2.319.767-4.474,1.251l.258,1.138q2.214-.5,4.583-1.28Zm-9.042,2a32.044,32.044,0,0,1-3.224.167c-.468,0-.929-.012-1.384-.033l-.055,1.166q.71.034,1.439.034a33.316,33.316,0,0,0,3.342-.173Zm-9.142-.463a25.543,25.543,0,0,1-4.358-1.381l-.451,1.077a26.858,26.858,0,0,0,4.557,1.444Zm-8.422-3.5a32.6,32.6,0,0,1-3.7-2.739l-.757.888a33.717,33.717,0,0,0,3.836,2.837Zm-7.05-5.938c-1.047-1.113-2.058-2.292-3.038-3.523l-.915.726c1,1.254,2.028,2.456,3.1,3.6Zm-5.832-7.264q-1.336-1.9-2.617-3.882l-.981.635c.863,1.329,1.74,2.641,2.643,3.92Zm-5.12-7.846q-1.236-2-2.458-4.012l-1,.607c.817,1.337,1.635,2.681,2.461,4.018Zm-4.926-8.025c-.84-1.347-1.688-2.676-2.548-3.975l-.975.644c.852,1.287,1.694,2.607,2.53,3.948Zm-5.248-7.86c-.951-1.3-1.926-2.545-2.935-3.727l-.889.756c.986,1.156,1.944,2.382,2.881,3.659Zm-6.2-7.188a32.226,32.226,0,0,0-3.691-3.03l-.67.956a31.169,31.169,0,0,1,3.557,2.921Zm-7.852-5.4a22.444,22.444,0,0,0-4.559-1.48l-.24,1.142a21.2,21.2,0,0,1,4.322,1.4Zm-9.332-1.964h-.015a38.131,38.131,0,0,0-4.711.282l.144,1.158a37.047,37.047,0,0,1,4.569-.273h.014Zm-9.378,1.209a28.533,28.533,0,0,0-4.455,1.649l.5,1.056a27.543,27.543,0,0,1,4.273-1.581Zm-8.586,4.021a32.221,32.221,0,0,0-3.7,2.984l.8.853a31.065,31.065,0,0,1,3.568-2.876Zm-6.974,6.427q-1.506,1.776-2.893,3.759l.956.671q1.368-1.939,2.829-3.675Zm-5.485,7.72q-1.21,1.976-2.372,4.088l1.024.564q1.155-2.088,2.346-4.043Zm-4.591,8.25q-1.066,2.058-2.13,4.2l1.046.52q1.066-2.135,2.121-4.187Zm-4.215,8.419q-1.027,2.083-2.084,4.213l1.046.52q1.062-2.133,2.086-4.217Zm-4.2,8.4q-1.061,2.067-2.179,4.153l1.03.552q1.127-2.1,2.189-4.173Zm-4.444,8.255q-1.15,2.017-2.376,4.033l1,.608q1.24-2.033,2.394-4.064l-1.017-.577Zm-4.88,7.984q-1.276,1.934-2.647,3.851l.95.679q1.387-1.934,2.673-3.889Zm-5.45,7.586q-1.427,1.818-2.965,3.6l.885.762q1.559-1.8,3-3.645Zm-6.1,7.059q-1.59,1.67-3.3,3.294l.8.846q1.734-1.644,3.343-3.335Zm-6.764,6.413q-1.75,1.493-3.622,2.934l.713.925q1.9-1.458,3.669-2.974Zm-7.391,5.676q-1.89,1.3-3.9,2.545l.614.993q2.04-1.259,3.955-2.578Zm-7.934,4.893q-2.009,1.106-4.139,2.152l.515,1.047q2.154-1.056,4.188-2.176Zm-8.374,4.111q-2.1.915-4.319,1.771l.421,1.089q2.241-.864,4.365-1.791Zm-8.71,3.364q-2.174.738-4.452,1.42l.335,1.118q2.3-.686,4.493-1.434Zm-8.954,2.677q-2.225.579-4.545,1.1l.257,1.138q2.34-.527,4.583-1.111Zm-9.126,2.06q-2.258.436-4.607.819l.188,1.152q2.367-.385,4.641-.825l-.221-1.146Zm-9.238,1.511q-2.284.31-4.651.571l.129,1.16q2.381-.262,4.679-.574Zm-9.316,1.028q-2.3.2-4.677.35l.075,1.165q2.39-.152,4.7-.353l-.1-1.162" transform="translate(2566.615 1181.145)"/><path class="ay" d="M123.425-351.512q-1.154.047-2.327.084l.036,1.166q1.177-.037,2.338-.084l-.048-1.166" transform="translate(2567.696 1165.802)"/><path class="al" d="M535.535-384.452a5.435,5.435,0,0,0-5.434-5.435,5.435,5.435,0,0,0-5.436,5.435,5.435,5.435,0,0,0,5.436,5.434,5.434,5.434,0,0,0,5.434-5.434" transform="translate(2517.844 1170.585)"/><path class="at" d="M528.792-412.185a6.9,6.9,0,0,1-6.9-6.9,6.9,6.9,0,0,1,6.9-6.9,6.9,6.9,0,0,1,6.9,6.9A6.9,6.9,0,0,1,528.792-412.185Zm10.34-17.238a14.623,14.623,0,0,0-20.68,0,14.618,14.618,0,0,0-2.72,16.9l-.01,0,.059.1a14.444,14.444,0,0,0,.765,1.324l12.246,21.169,12.242-21.166a14.542,14.542,0,0,0,.769-1.328l.057-.1-.009,0a14.62,14.62,0,0,0-2.719-16.9" transform="translate(2519.153 1176.048)"/><path class="al" d="M293.962-474.672a5.435,5.435,0,0,0-5.435-5.436,5.436,5.436,0,0,0-5.436,5.436,5.436,5.436,0,0,0,5.436,5.434,5.435,5.435,0,0,0,5.435-5.434" transform="translate(2547.693 1181.829)"/><path class="at" d="M287.218-502.407a6.9,6.9,0,0,1-6.9-6.9,6.9,6.9,0,0,1,6.9-6.9,6.9,6.9,0,0,1,6.9,6.9A6.9,6.9,0,0,1,287.218-502.407Zm10.34-17.238a14.624,14.624,0,0,0-20.68,0,14.619,14.619,0,0,0-2.719,16.9l-.009,0,.058.1a14.618,14.618,0,0,0,.764,1.324l12.246,21.169,12.243-21.166a14.448,14.448,0,0,0,.768-1.328l.059-.1-.009,0a14.621,14.621,0,0,0-2.72-16.9" transform="translate(2549.001 1187.278)"/><path class="al" d="M125.779-351.525a5.435,5.435,0,0,0-5.435-5.436,5.435,5.435,0,0,0-5.435,5.436,5.435,5.435,0,0,0,5.435,5.434,5.435,5.435,0,0,0,5.435-5.434" transform="translate(2568.469 1166.482)"/><path class="at" d="M119.035-379.26a6.9,6.9,0,0,1-6.9-6.9,6.9,6.9,0,0,1,6.9-6.9,6.9,6.9,0,0,1,6.9,6.9A6.9,6.9,0,0,1,119.035-379.26Zm10.34-17.238a14.623,14.623,0,0,0-20.68,0,14.622,14.622,0,0,0-2.719,16.905l-.009,0,.058.1a14.632,14.632,0,0,0,.765,1.322l12.245,21.17,12.243-21.166a14.317,14.317,0,0,0,.768-1.328l.058-.1-.009,0a14.62,14.62,0,0,0-2.719-16.905" transform="translate(2569.778 1171.947)"/><g transform="translate(2989.206 623.42)"><path class="au" d="M529.2-572.529h1.167v-15.723H529.2Z" transform="translate(-521.92 612.711)"/><path class="au" d="M520.883-578.769h15.724v-1.167H520.883Z" transform="translate(-520.883 611.674)"/><path class="au" d="M562.149-582.705h1.167v-12.94h-1.167Z" transform="translate(-526.032 613.635)"/><path class="au" d="M555.423-587.751h12.941v-1.167H555.423Z" transform="translate(-525.193 612.794)"/><path class="au" d="M549.832-607.58H551V-616.2h-1.167Z" transform="translate(-524.495 616.199)"/><path class="au" d="M545.576-610.774h8.618v-1.167h-8.618Z" transform="translate(-523.964 615.668)"/><path class="au" d="M538.183-554.613h1.167v-5.313h-1.167Z" transform="translate(-523.041 609.176)"/><path class="au" d="M535.812-556.389h5.314v-1.167h-5.314Z" transform="translate(-522.746 608.88)"/></g><path class="au" d="M544.381-250.911h15.725v-1.167H544.381Z" transform="translate(2515.383 1153.41)"/><path class="au" d="M552.7-244.669h1.167v-15.724H552.7Z" transform="translate(2514.345 1154.448)"/><path class="au" d="M553.364-217.96h8.62v-1.167h-8.62Z" transform="translate(2514.262 1149.303)"/><path class="au" d="M557.621-214.765h1.166v-8.619h-1.166Z" transform="translate(2513.73 1149.834)"/><path class="au" d="M523.889-238.891H529.2v-1.167h-5.314Z" transform="translate(2517.94 1151.911)"/><path class="au" d="M526.259-237.114h1.167v-5.312h-1.167Z" transform="translate(2517.645 1152.207)"/><path class="au" d="M118.2-243.839h1.167v-15.724H118.2Z" transform="translate(2568.059 1154.344)"/><path class="au" d="M109.88-250.08H125.6v-1.167H109.88Z" transform="translate(2569.097 1153.306)"/><path class="au" d="M85.247-241.962h1.167v-8.619H85.247Z" transform="translate(2572.169 1153.224)"/><path class="au" d="M80.989-245.155h8.619v-1.167H80.989Z" transform="translate(2572.702 1152.692)"/><path class="au" d="M106.178-274.74h1.167v-5.314h-1.167Z" transform="translate(2569.559 1156.896)"/><path class="au" d="M103.809-276.519h5.314v-1.167h-5.314Z" transform="translate(2569.854 1156.601)"/><path class="au" d="M84.346-555.893h20.106v-1.167H84.346Z" transform="translate(2572.283 1191.413)"/><path class="au" d="M95.166-547.774h1.167V-567.88H95.166Z" transform="translate(2570.934 1192.764)"/><path class="au" d="M100.4-523.417H112.51v-1.167H100.4Z" transform="translate(2570.281 1187.36)"/><path class="au" d="M106.652-518.727h1.167v-12.109h-1.167Z" transform="translate(2569.501 1188.141)"/><path class="au" d="M125.95-535.26h8.618v-1.167H125.95Z" transform="translate(2567.092 1188.838)"/><path class="au" d="M130.207-532.065h1.167v-8.618h-1.167Z" transform="translate(2566.561 1189.37)"/><path class="au" d="M70.417-535.26h5.314v-1.167H70.417Z" transform="translate(2574.021 1188.838)"/><path class="au" d="M72.786-533.482h1.167V-538.8H72.786Z" transform="translate(2573.726 1189.134)"/><path class="au" d="M119.878-565.739h5.314v-1.167h-5.314Z" transform="translate(2567.849 1192.643)"/><path class="au" d="M122.247-563.962h1.167v-5.313h-1.167Z" transform="translate(2567.553 1192.938)"/></g></g></svg>