<svg xmlns="http://www.w3.org/2000/svg" width="154" height="102" viewBox="0 0 154 102"><defs><style>.a{fill:#ffceb6;}.b{fill:#ffbfa1;}.c{fill:#0c7643;}.d{fill:#62bb71;}.e{fill:#085c33;}.f{fill:#fcbdae;}.g{fill:#e88168;}</style></defs><g transform="translate(-24 -113.492)"><path class="a" d="M136.987,360.407v6.638h-5.794l-5.794-5.794-7.7-1.539-19.9-3.98L87.682,343.079l-2.137-2.673-6.5-8.126v46.354H24V332.28A20.279,20.279,0,0,1,44.281,312H79.27a11.59,11.59,0,0,1,9.05,4.349L98.97,329.665l9.046,11.306,21.685,8.673A11.592,11.592,0,0,1,136.987,360.407Z" transform="translate(0 -163.142)"/><path class="b" d="M229.057,411.518,225.2,405.09A18.811,18.811,0,0,0,209.146,396c-.474,0-.96.018-1.434.054l-7.862.6,10.125,12.653,19.9,3.98a9.033,9.033,0,0,0-.815-1.774Z" transform="translate(-112.168 -216.858)"/><path class="c" d="M98.97,329.665,85.546,340.406l-6.5-8.126v46.354H24V332.28A20.279,20.279,0,0,1,44.281,312H79.27a11.59,11.59,0,0,1,9.05,4.349Z" transform="translate(0 -163.142)"/><path class="d" d="M120.691,352l2.9,20.28-5.794,8.691L112,372.28,114.9,352Z" transform="translate(-56.132 -188.849)"/><path class="d" d="M123.588,333.794l-2.9,2.9H114.9l-2.9-2.9L117.794,328Z" transform="translate(-56.132 -173.686)"/><rect class="e" width="5.794" height="14.546" rx="2.897" transform="matrix(0.64, -0.768, 0.768, 0.64, 39.492, 174.025)"/><rect class="e" width="5.795" height="12.862" rx="2.897" transform="matrix(0.53, -0.848, 0.848, 0.53, 28.259, 194.772)"/><path class="a" d="M70.118,419.5l8.368,5.23a11.589,11.589,0,0,0,8.415,1.536l38.944-7.789,10.63,5.315a4.537,4.537,0,0,0,2.029.479h.186a4.537,4.537,0,0,0,3.891-6.872l-3.857-6.429a14.375,14.375,0,0,0-12.327-6.979q-.552,0-1.1.042l-37.112,2.855-6.208-5.173L70.118,419.5Z" transform="translate(-29.417 -220.367)"/><path class="f" d="M240,464h23.207v8.691H240Z" transform="translate(-137.307 -260.097)"/><rect class="g" width="66" height="47" rx="16" transform="translate(112 131.193)"/><path class="f" d="M384,336h17.383v55.045H384Z" transform="translate(-243.615 -178.451)"/><path class="f" d="M344,464h14.486v8.691H344Z" transform="translate(-218.101 -260.097)"/><path class="e" d="M113.585,326.486l-7.491-7.491L98.6,326.486a2.9,2.9,0,1,1-4.1-4.1l9.54-9.54a2.9,2.9,0,0,1,4.1,0l9.54,9.54a2.9,2.9,0,1,1-4.1,4.1Z" transform="translate(-44.431 -163.501)"/><path class="a" d="M107.588,274.074a11.588,11.588,0,0,0,11.588-11.588V248H104.691L96,256.691v5.794A11.588,11.588,0,0,0,107.588,274.074Z" transform="translate(-45.926 -122.92)"/><path d="M119.177,227.588l1.1-1.1A6.146,6.146,0,0,0,115.928,216H104.691A8.691,8.691,0,0,0,96,224.691V236.28l8.691-8.691Z" transform="translate(-45.926 -102.508)"/></g></svg>