<svg xmlns="http://www.w3.org/2000/svg" width="70" height="102" viewBox="0 0 70 102"><defs><style>.a{fill:#0c7643;}.b{fill:#62bb71;}.c{fill:#e88168;}.d{fill:#fcbdae;}</style></defs><g transform="translate(-96 -24)"><path class="a" d="M166,58.576a35,35,0,0,0-70,0c0,19.1,35,65.695,35,65.695S166,77.672,166,58.576Z"/><path class="a" d="M136,480h52.712v3.458H136Z" transform="translate(-31.356 -357.458)"/><ellipse class="b" cx="28.424" cy="28" rx="28.424" ry="28" transform="translate(102 30)"/><rect class="c" width="35.847" height="23" rx="11.5" transform="translate(113 47)"/><rect class="d" width="25" height="23" rx="11.5" transform="translate(113.326 47)"/><g transform="translate(122.306 46.475)"><path class="c" d="M216,128h6.915v6.915H216Z" transform="translate(-216 -128)"/><path class="c" d="M224,184h8.644v6.915H224Z" transform="translate(-222.271 -171.898)"/></g></g></svg>