<svg xmlns="http://www.w3.org/2000/svg" width="102" height="102" viewBox="0 0 102 102"><defs><style>.a{fill:#fcbdae;}.b{fill:#62bb71;}.c{fill:#0c7643;}.d{fill:#e88168;}</style></defs><g transform="translate(-24 -24)"><path class="a" d="M36.31,136H113.69v24.621H36.31A12.31,12.31,0,0,1,24,148.31h0A12.31,12.31,0,0,1,36.31,136Z" transform="translate(0 -87.379)"/><path class="b" d="M128,24h56.276V73.241H128Z" transform="translate(-81.138)"/><path class="c" d="M128,24h7.034V73.241H128Z" transform="translate(-81.138)"/><path class="c" d="M352,24h7.034V73.241H352Z" transform="translate(-255.897)"/><circle class="c" cx="15.812" cy="15.812" r="15.812" transform="translate(59.345 57.485)"/><circle class="c" cx="5.271" cy="5.271" r="5.271" transform="translate(69.886 36.402)"/><path class="d" d="M115.448,204.31v52.759H36.31A12.31,12.31,0,0,1,24,244.758V192a12.31,12.31,0,0,0,12.311,12.31Z" transform="translate(0 -131.069)"/><path class="a" d="M371.345,328v17.586H360.793a8.793,8.793,0,0,1,0-17.586Z" transform="translate(-255.897 -237.172)"/><path class="d" d="M381.1,325.1H367.034a7.034,7.034,0,1,1,0-14.069H381.1A7.034,7.034,0,0,0,388.138,304v14.069A7.034,7.034,0,0,1,381.1,325.1Z" transform="translate(-262.138 -218.448)"/><path class="a" d="M440,272h3.517a7.034,7.034,0,1,1,0,14.069H440Z" transform="translate(-324.552 -193.483)"/><ellipse class="a" cx="1.55" cy="1.86" rx="1.55" ry="1.86" transform="translate(103.371 97.79)"/></g></svg>